<svg enable-background="new 0 0 36 36" height="512" viewBox="0 0 36 36" width="512" xmlns="http://www.w3.org/2000/svg"><g id="Layer_2"><g><path d="m26.982 3.961c-6.916.13-11.732-3.364-15.065-3.302s-10.296 2.11-10.009 17.44 9.744 17.404 13.41 17.336c17.164-.321 23.911-31.703 11.664-31.474z" fill="#efefef"/></g></g><g id="color"><g><path d="m26.25 27.25c0 1.105-.895 2-2 2h-12.5c-1.105 0-2-.895-2-2v-18.5c0-1.105.895-2 2-2h12.5c1.105 0 2 .895 2 2z" fill="#f3f3f1"/></g><g><path d="m12 27.25v-18.5c0-1.105.895-2 2-2h-2.25c-1.105 0-2 .895-2 2v18.5c0 1.105.895 2 2 2h2.25c-1.105 0-2-.895-2-2z" fill="#d5dbe1"/></g><g><g><path d="m29.773 4.394h2v1h-2z" fill="#a4afc1" transform="matrix(.707 -.707 .707 .707 5.553 23.193)"/></g><g><path d="m26.207 3.717h1v2h-1z" fill="#a4afc1" transform="matrix(.707 -.707 .707 .707 4.487 20.266)"/></g><g><path d="m30.273 7.783h1v2h-1z" fill="#a4afc1" transform="matrix(.707 -.707 .707 .707 2.808 24.342)"/></g></g><g><path d="m4.5 8.25c-.827 0-1.5-.673-1.5-1.5s.673-1.5 1.5-1.5 1.5.673 1.5 1.5-.673 1.5-1.5 1.5zm0-2c-.275 0-.5.225-.5.5s.225.5.5.5.5-.225.5-.5-.225-.5-.5-.5z" fill="#a4afc1"/></g></g><g id="line"><g><path d="m12.75 25.5h10.5v1.5h-10.5z"/></g><g><path d="m12.75 21.5h10.5v1.5h-10.5z"/></g><g><path d="m19.75 17.5h3.5v1.5h-3.5z"/></g><g><path d="m19.75 13.5h3.5v1.5h-3.5z"/></g><g><g><path d="m14.88 18h-2.13v-1.5h2.13c.342 0 .62-.278.62-.62 0-.352-.278-.63-.62-.63h-.76c-1.169 0-2.12-.951-2.12-2.12 0-1.179.951-2.13 2.12-2.13h2.13v1.5h-2.13c-.342 0-.62.278-.62.62 0 .352.278.63.62.63h.76c1.169 0 2.12.951 2.12 2.12 0 1.179-.951 2.13-2.12 2.13z"/></g><g><path d="m13.75 10.25h1.5v1.5h-1.5z"/></g><g><path d="m13.75 17.25h1.5v1.5h-1.5z"/></g></g><g><path d="m24.25 30h-12.5c-1.517 0-2.75-1.233-2.75-2.75v-18.5c0-1.517 1.233-2.75 2.75-2.75h12.5c1.517 0 2.75 1.233 2.75 2.75v18.5c0 1.517-1.233 2.75-2.75 2.75zm-12.5-22.5c-.689 0-1.25.561-1.25 1.25v18.5c0 .689.561 1.25 1.25 1.25h12.5c.689 0 1.25-.561 1.25-1.25v-18.5c0-.689-.561-1.25-1.25-1.25z"/></g></g></svg>