<svg width="221" height="49" fill="none" xmlns="http://www.w3.org/2000/svg"><path d="M8.563 8.188H.875V.124h7.688v8.063zM8.187 46.75H1.375V13.5h6.813v33.25zm32.25 0H33.75v-21c0-2.25-.48-4.083-1.438-5.5-.708-1-1.916-1.5-3.624-1.5-1.459 0-2.834.73-4.125 2.188-1.292 1.458-2.23 3.687-2.813 6.687a18.413 18.413 0 00-.375 2.188c-.042.708-.063 1.5-.063 2.375V46.75h-6.625V13.5h6.626v3.375c.708-1.042 1.75-2 3.125-2.875s2.916-1.313 4.625-1.313c3.541 0 6.291.959 8.25 2.876 2.083 2.124 3.124 5.145 3.124 9.062V46.75zm33-33.25L62 46.75h-5.688L43.75 13.5h6.938L59.124 37l7.813-23.5h6.5zm23.75 16.625c0-1.625-.187-3.23-.562-4.813-.375-1.583-.917-2.875-1.625-3.875-.667-1.083-1.48-1.875-2.438-2.375-.958-.5-1.937-.75-2.937-.75-1 0-1.98.25-2.938.75-.958.5-1.791 1.292-2.5 2.375-.666 1-1.187 2.292-1.562 3.875a20.811 20.811 0 00-.563 4.813c0 1.625.188 3.23.563 4.813.375 1.541.896 2.812 1.563 3.812.708 1.083 1.541 1.875 2.5 2.375a6.74 6.74 0 002.937.688c1 0 1.98-.23 2.938-.688.958-.5 1.77-1.292 2.437-2.375.708-1 1.25-2.27 1.625-3.813.375-1.583.563-3.187.563-4.812zm6.875 0c0 2.333-.333 4.604-1 6.813-.666 2.166-1.624 4.041-2.874 5.624a13.26 13.26 0 01-4.813 3.626 13.743 13.743 0 01-5.75 1.25c-2 0-3.938-.417-5.813-1.25-1.833-.834-3.416-2.042-4.75-3.626-1.25-1.583-2.208-3.458-2.874-5.624-.667-2.209-1-4.48-1-6.813 0-2.333.333-4.583 1-6.75.666-2.208 1.624-4.104 2.874-5.688 1.334-1.666 2.917-2.916 4.75-3.75a14.168 14.168 0 015.813-1.25c2 0 3.917.417 5.75 1.25 1.875.834 3.48 2.084 4.813 3.75 1.25 1.584 2.208 3.48 2.874 5.688.667 2.167 1 4.417 1 6.75zm12.126-21.938H108.5V.126h7.688v8.063zm-.376 38.563H109V13.5h6.812v33.25zm27.438-9.125c0 1.458-.271 2.813-.812 4.063-.5 1.208-1.23 2.208-2.188 3-1.083.916-2.521 1.604-4.312 2.062-1.792.458-3.73.688-5.813.688-2.417 0-5.583-.605-9.5-1.813V38.5c1.875 1.167 3.604 2 5.187 2.5 1.626.458 3.063.688 4.313.688 2.083 0 3.604-.25 4.563-.75 1.291-.75 1.937-1.75 1.937-3 0-.834-.229-1.542-.687-2.126-.459-.583-1.105-1.124-1.938-1.624-.875-.459-2.083-1-3.625-1.626a84.734 84.734 0 01-4.437-2c-1.25-.625-2.438-1.604-3.563-2.937-1.083-1.375-1.625-3.167-1.625-5.375 0-3.042 1.062-5.396 3.188-7.063 2.166-1.666 4.937-2.5 8.312-2.5 2.792 0 5.854.563 9.188 1.688v6.75c-1.667-.958-3.25-1.667-4.75-2.125a15.956 15.956 0 00-4.688-.688c-1.375 0-2.521.313-3.438.938-.874.583-1.312 1.417-1.312 2.5 0 .708.125 1.313.375 1.813.292.458.813.937 1.563 1.437.75.458 2 1.042 3.75 1.75a64.596 64.596 0 014.624 2.063c1.5.791 2.813 1.895 3.938 3.312 1.167 1.417 1.75 3.25 1.75 5.5zm49.5-12.5h-7c0-2.042-.458-3.667-1.375-4.875-.917-1.208-2.271-1.813-4.063-1.813-2.083 0-3.874.959-5.374 2.875-1.459 1.917-2.188 4.646-2.188 8.188 0 .833.062 1.73.188 2.688.166.916.416 1.833.75 2.75A10.151 10.151 0 00175.25 38c.75.958 1.688 1.833 2.812 2.625.376.25.98.5 1.813.75.875.208 1.896.313 3.063.313.833 0 1.916-.105 3.25-.313 1.333-.25 3.208-1.063 5.624-2.438v5.876c-2.041 1.25-4.062 2.041-6.062 2.374-2 .334-4 .396-6 .188-1.75-.167-3.5-.667-5.25-1.5-1.708-.875-3.104-1.896-4.188-3.063-1.25-1.5-2.312-3.374-3.187-5.624-.833-2.25-1.25-4.834-1.25-7.75 0-2.417.313-4.625.937-6.625.626-2.042 1.542-3.792 2.75-5.25 1.209-1.5 2.73-2.688 4.563-3.563 1.833-.875 3.937-1.313 6.313-1.313 1.708 0 3.291.271 4.75.813 1.458.542 2.729 1.313 3.812 2.313 1.125.958 2.021 2.145 2.688 3.562.708 1.417 1.062 3.333 1.062 5.75zm27.438 21.625h-24.5v-5.063l15.937-22.5h-14.813V13.5h22.563v5.438l-15.75 22.125h16.563v5.687z" fill="#31393C"/><path d="M150.775 48.192h7.232V40.32h-7.232v7.872z" fill="#2176FF"/></svg>